<svg id="Capa_1" enable-background="new 0 0 512 512" height="512" viewBox="0 0 512 512" width="512" xmlns="http://www.w3.org/2000/svg"><g><path d="m356.917 364.333-70.118.008.028 30 70.09-.008z"/><path d="m417.167 428.664v-263h-262.979v-165.664h-88.522v30h58.522l-.022 346.504c-30.761 6.744-53.86 34.192-53.86 66.948 0 37.798 30.751 68.549 68.549 68.549 32.569 0 59.886-22.839 66.826-53.336h240.652v-30h-29.166zm-211.387 0c-5.689-25.763-25.906-46.116-51.592-52.011v-180.989h67.608v131.256h97.74v-131.256h67.63v233zm-105.474 14.787c0-21.256 17.293-38.549 38.549-38.549s38.549 17.293 38.549 38.549-17.293 38.549-38.549 38.549-38.549-17.293-38.549-38.549zm189.231-247.787v101.256h-37.74v-101.256z"/></g></svg>