<svg id="Capa_1" enable-background="new 0 0 512 512" height="512" viewBox="0 0 512 512" width="512" xmlns="http://www.w3.org/2000/svg"><g><path d="m467.089 155.214-114.367-133.428-22.777 19.524 97.633 113.905h-343.156l97.633-113.905-22.777-19.524-114.368 133.428h-44.91v58.074c0 22.503 13.309 41.947 32.464 50.901l37.742 226.024h371.588l37.742-226.024c19.155-8.954 32.464-28.397 32.464-50.9v-58.074h-44.911zm-340.249 114.239 17.52 190.762h-48.748l-31.854-190.762zm30.126 0h84.034v190.762h-66.515zm114.034 190.761v-190.761h84.034l-17.519 190.762h-66.515zm114.16-190.761h63.081l-31.854 190.762h-48.747zm70.676-30h-399.672c-14.427 0-26.164-11.738-26.164-26.164v-28.074h452v28.074c0 14.426-11.737 26.164-26.164 26.164z"/></g></svg>