<svg id="Capa_1" enable-background="new 0 0 512 512" height="512" viewBox="0 0 512 512" width="512" xmlns="http://www.w3.org/2000/svg"><g><path d="m420.042 14.795h-420.042v329.111h360.103v77.35c0 41.878 34.07 75.949 75.949 75.949 41.878 0 75.949-34.07 75.949-75.949v-315.645zm-390.042 30h377.726l74.274 73.353v64.288c-8.889-6.916-19.313-11.937-30.674-14.459-5.177-22.451-25.316-39.247-49.316-39.247-27.913 0-50.621 22.709-50.621 50.621s22.708 50.621 50.621 50.621c21.193 0 39.374-13.096 46.905-31.616 18.268 5.824 31.763 22.426 32.985 42.297l-74.175 73.254h-377.725zm392.631 134.556c0 11.371-9.25 20.621-20.621 20.621s-20.621-9.251-20.621-20.621c0-11.371 9.25-20.621 20.621-20.621s20.621 9.25 20.621 20.621zm59.369 241.905c0 25.336-20.612 45.949-45.949 45.949s-45.949-20.612-45.949-45.949v-77.35h29.939l61.959-61.188z"/><path d="m76.49 165.164h212.18v30h-212.18z" transform="matrix(.462 -.887 .887 .462 -61.517 258.976)"/><path d="m164.333 125.146c0-24.813-20.187-45-45-45s-45 20.187-45 45 20.187 45 45 45 45-20.187 45-45zm-45 15c-8.271 0-15-6.729-15-15s6.729-15 15-15 15 6.729 15 15-6.729 15-15 15z"/><path d="m247.333 188.555c-24.813 0-45 20.187-45 45s20.187 45 45 45 45-20.187 45-45-20.187-45-45-45zm0 60c-8.271 0-15-6.729-15-15s6.729-15 15-15 15 6.729 15 15-6.729 15-15 15z"/></g></svg>