<svg id="Capa_1" enable-background="new 0 0 512 512" height="512" viewBox="0 0 512 512" width="512" xmlns="http://www.w3.org/2000/svg"><g><path d="m350 0h-188c-35.841 0-65 29.159-65 65v382c0 35.841 29.159 65 65 65h188c35.841 0 65-29.159 65-65v-382c0-35.841-29.159-65-65-65zm0 482h-41.591c5.344-9.048 8.424-19.585 8.424-30.833s-3.08-21.785-8.424-30.833h76.591v26.666c0 19.299-15.701 35-35 35zm-223-35v-26.666h76.591c-5.344 9.048-8.424 19.586-8.424 30.833 0 11.248 3.08 21.785 8.424 30.833h-41.591c-19.3 0-35-15.701-35-35zm35-417h188c19.299 0 35 15.701 35 35v325.333h-258v-325.333c0-19.299 15.7-35 35-35zm63.167 421.167c0-17.001 13.832-30.833 30.833-30.833s30.833 13.832 30.833 30.833-13.832 30.833-30.833 30.833-30.833-13.832-30.833-30.833z"/><path d="m201.522 324.762h108.956v30h-108.956z"/><path d="m334.755 126.549h-32.389v-17.936c0-25.566-20.8-46.366-46.366-46.366s-46.366 20.8-46.366 46.366v17.936h-32.39l-9.183 168.764h175.877zm-129.099 30.001h100.687l5.918 108.764h-112.523zm50.344-64.303c9.024 0 16.366 7.342 16.366 16.366v17.936h-32.732v-17.936c0-9.024 7.342-16.366 16.366-16.366z"/></g></svg>