<svg id="Capa_1" enable-background="new 0 0 512 512" height="512" viewBox="0 0 512 512" width="512" xmlns="http://www.w3.org/2000/svg"><g><path d="m294.333 206.333h115.334v30h-115.334z"/><path d="m477.223 345v-212.333c0-35.841-29.159-65-65-65h-312.446c-35.841 0-65 29.159-65 65v212.333h-34.777v36.834c0 34.462 28.037 62.5 62.5 62.5h387c34.463 0 62.5-28.037 62.5-62.5v-36.834zm4.777 36.834c0 17.921-14.579 32.5-32.5 32.5h-71.838v-39.334h104.338zm-317.662 32.499v-39.333h183.324v39.334h-183.324zm-134.338-32.499v-6.834h104.338v39.334h-71.838c-17.921-.001-32.5-14.58-32.5-32.5zm34.777-249.167c0-19.299 15.701-35 35-35h312.445c19.299 0 35 15.701 35 35v212.333h-382.445z"/><path d="m249.667 146h-147.334v157h147.334zm-30 127h-87.334v-97h87.334z"/><path d="m294.333 146h115.334v30h-115.334z"/><path d="m294.333 273h51.334v30h-51.334z"/></g></svg>