<svg id="Capa_1" enable-background="new 0 0 512 512" height="512" viewBox="0 0 512 512" width="512" xmlns="http://www.w3.org/2000/svg"><g><path d="m452.334 159.668v-23.138c18.58-6.276 32-23.86 32-44.531 0-25.916-21.084-47-47-47s-47 21.084-47 47c0 20.671 13.42 38.255 32 44.531v23.138h-332.667v-23.138c18.58-6.276 32-23.86 32-44.531 0-25.916-21.084-47-47-47s-47 21.084-47 47c0 20.671 13.42 38.255 32 44.531v23.138h-59.667v307.333h512v-307.333zm29.666 277.333h-452v-247.333h452zm-44.666-362.002c9.374 0 17 7.626 17 17s-7.626 17-17 17-17-7.626-17-17 7.626-17 17-17zm-362.667 0c9.374 0 17 7.626 17 17s-7.626 17-17 17-17-7.626-17-17 7.626-17 17-17z"/><path d="m233.624 351.317-.111 45.236 30 .074.111-45.31h17.138v-30h-17.063l.22-89.308h-38.673l-54.458 94.825.005 24.483zm.183-73.975-.108 43.975h-25.148z"/><path d="m94.932 277.191c1.729-8.797 9.508-15.182 18.498-15.182 10.121 0 18.405 8.017 18.835 18.035l-.411 3.217c-1.65 6.534-5.543 14.213-11.579 22.838-31.858 45.52-45.794 60.436-45.902 60.551l-4.12 4.323-.091 25.363 97.683.299.092-30-54.643-.168c7.682-9.92 18.096-23.93 31.559-43.168 8.456-12.083 17.43-22.717 17.43-42.439 0-26.778-21.915-48.853-48.852-48.853-23.291 0-43.451 16.57-47.936 39.4l-2.892 14.719 29.438 5.782z"/><path d="m353.568 395.418h33.002l64.218-140.075v-23.718h-102.781v30h66.898z"/><path d="m314.747 299.303h30v30h-30z"/></g></svg>