<svg id="Capa_1" enable-background="new 0 0 512 512" height="512" viewBox="0 0 512 512" width="512" xmlns="http://www.w3.org/2000/svg"><g><path d="m447 33h-382c-35.841 0-65 29.159-65 65v241.333c0 35.841 29.159 65 65 65h69.364v44.667h-27.697v30h298.667v-30h-27.697v-44.667h69.363c35.841 0 65-29.159 65-65v-241.333c0-35.841-29.159-65-65-65zm35 306.333c0 19.299-15.701 35-35 35h-382c-19.299 0-35-15.701-35-35v-241.333c0-19.299 15.701-35 35-35h382c19.299 0 35 15.701 35 35zm-317.636 109.667v-44.667h183.272v44.667z"/><path d="m271 102.334h-200.666v232.666h200.666zm-47.242 29.999-123.425 146.567v-146.567zm-106.183 172.667 123.425-146.567v146.567z"/><path d="m298.667 173.167h138.667v30h-138.667z"/><path d="m298.667 234.167h106.667v30h-106.667z"/><path d="m298.667 102.334h138.667v30h-138.667z"/><path d="m384 305h53.333v30h-53.333z"/></g></svg>