<svg id="Capa_1" enable-background="new 0 0 511.898 511.898" height="512" viewBox="0 0 511.898 511.898" width="512" xmlns="http://www.w3.org/2000/svg"><g><path d="m392.009 171.091c-18.718-30.817-48.364-52.511-83.476-61.087-8.834-2.158-17.744-3.417-26.623-3.798l-1.165 29.986c6.893.3 13.81 1.28 20.669 2.955 27.328 6.674 50.395 23.55 64.953 47.518 18.813 30.973 19.689 67.9 5.607 98.594l27.496 11.971c17.827-39.334 16.601-86.526-7.461-126.139z"/><path d="m327.58 209.675c-10.858-17.564-29.361-27.578-48.584-28.415l-1.164 29.969c9.591.448 18.812 5.456 24.23 14.221 4.225 6.834 5.536 14.906 3.69 22.727-.59 2.501-1.484 4.879-2.646 7.098l27.539 11.99c1.843-3.859 3.299-7.937 4.305-12.199 3.686-15.62 1.069-31.741-7.37-45.391z"/><path d="m455.479 130.608c-38.122-61.666-103.147-96.773-170.649-99.557l-1.164 29.968c57.87 2.396 113.613 32.496 146.296 85.364 25.345 40.997 33.207 89.412 22.139 136.323-2.673 11.329-6.382 22.237-11.034 32.633l27.512 11.978c5.355-12.023 9.632-24.631 12.72-37.721 12.908-54.711 3.738-111.174-25.82-158.988z"/><g><path d="m431.58 415.091-49.13-80.415c-12.847-21.028-40.126-28.051-61.477-16.13-.473.264-27.529 16.619-27.529 16.619-9.436-1.371-39.946-9.852-71.72-61.859-11.021-18.038-24.283-45.105-24.881-71.62-.224-9.941 1.445-16.825 2.657-20.456l25.819-15.774c10.454-6.387 17.795-16.463 20.67-28.371 2.876-11.908.942-24.224-5.444-34.677l-49.2-80.529c-12.911-21.132-40.824-28.183-62.223-15.717l.044-.007c-60.517 36.973-96.771 91.657-103.196 157.208-5.81 59.289 12.028 124.853 51.586 189.601l7.495 12.268c39.559 64.748 89.754 110.542 145.161 132.431 24.06 9.505 48.599 14.235 73.196 14.235 38.029 0 76.197-11.308 112.946-33.759 21.58-13.184 28.41-41.468 15.226-63.048zm-287.356-383.008c7.401-4.311 17.056-1.874 21.521 5.437l49.2 80.529c4.561 7.464 2.198 17.247-5.266 21.807l-20.688 12.639-65.074-106.513c6.233-4.795 20.307-13.899 20.307-13.899zm174.165 449.157c-25.896 2.378-51.854-1.483-77.155-11.479-49.296-19.475-94.451-61.029-130.583-120.17l-7.495-12.268c-36.132-59.141-52.498-118.284-47.329-171.034 2.653-27.073 11.065-51.933 24.999-73.89 5.824-9.176 12.643-17.858 20.392-26.026l68.095 111.457c-1.341 5.556-2.423 12.643-2.488 21.191-.211 27.505 9.646 57.761 29.298 89.926s42.074 54.745 66.644 67.11c7.635 3.843 14.436 6.116 19.991 7.459l68.095 111.457c-10.804 3.168-21.641 5.273-32.464 6.267zm82.324-28.701c-7.077 4.324-14.201 8.165-21.356 11.543l-65.052-106.476s21.574-13.026 21.971-13.223c7.273-3.606 16.266-1.116 20.574 5.934l49.13 80.415c4.56 7.463 2.197 17.246-5.267 21.807z"/></g></g></svg>