<svg id="Capa_1" enable-background="new 0 0 512 512" height="512" viewBox="0 0 512 512" width="512" xmlns="http://www.w3.org/2000/svg"><g><path d="m376.823 302.531-7.551-6.528v-79.312c0-43.912-25.117-82.068-61.739-100.856v-25.969c0-28.415-23.117-51.532-51.532-51.532s-51.533 23.117-51.533 51.532v25.968c-36.622 18.788-61.739 56.944-61.739 100.857v79.312l-7.551 6.528c-16.809 14.532-26.45 35.61-26.45 57.829v42.699h88.645c-.663 3.553-1.025 7.211-1.025 10.953 0 32.893 26.761 59.653 59.654 59.653s59.653-26.76 59.653-59.653c0-3.742-.363-7.4-1.025-10.953h88.645v-42.699c-.002-22.218-9.643-43.296-26.452-57.829zm-3.55 70.529h-234.546v-12.699c0-13.5 5.858-26.306 16.07-35.135l6.764-5.848h188.878l6.764 5.847c10.213 8.83 16.07 21.636 16.07 35.135zm-87.619 40.953c0 16.351-13.303 29.653-29.653 29.653-16.351 0-29.654-13.302-29.654-29.653 0-3.868.752-7.562 2.106-10.953h55.096c1.352 3.392 2.105 7.085 2.105 10.953zm-29.654-345.679c11.873 0 21.532 9.659 21.532 21.532v15.615c-6.974-1.348-14.171-2.062-21.533-2.062-7.361 0-14.558.714-21.532 2.062v-15.615c.001-11.873 9.66-21.532 21.533-21.532zm0 65.085c45.916 0 83.272 37.355 83.272 83.272v72.688h-166.543v-72.688c0-45.916 37.355-83.272 83.271-83.272z"/><path d="m30 256c0-43.469 35.365-78.833 78.834-78.833v-30c-60.012 0-108.834 48.823-108.834 108.833 0 22.327 6.715 43.788 19.419 62.061 12.403 17.84 29.618 31.44 49.783 39.327l10.928-27.938c-30.453-11.912-50.13-40.743-50.13-73.45z"/><path d="m90 256c0-10.385 8.449-18.833 18.834-18.833v-30c-26.927 0-48.834 21.906-48.834 48.833 0 20.833 13.244 39.393 32.955 46.183l9.771-28.364c-7.612-2.622-12.726-9.783-12.726-17.819z"/><path d="m403.167 147.167v30c43.468 0 78.833 35.365 78.833 78.833 0 32.708-19.678 61.538-50.131 73.45l10.928 27.939c20.166-7.887 37.381-21.486 49.783-39.327 12.706-18.274 19.42-39.735 19.42-62.062 0-60.01-48.822-108.833-108.833-108.833z"/><path d="m452 256c0-26.927-21.907-48.833-48.834-48.833v30c10.385 0 18.834 8.449 18.834 18.833 0 8.036-5.114 15.196-12.727 17.818l9.772 28.364c19.711-6.789 32.955-25.348 32.955-46.182z"/></g></svg>