<svg id="Capa_1" enable-background="new 0 0 512 512" height="512" viewBox="0 0 512 512" width="512" xmlns="http://www.w3.org/2000/svg"><g><path d="m437.02 74.98c-48.353-48.351-112.64-74.98-181.02-74.98s-132.667 26.629-181.02 74.98c-48.351 48.352-74.98 112.64-74.98 181.02s26.629 132.668 74.98 181.02c48.353 48.351 112.64 74.98 181.02 74.98s132.667-26.629 181.02-74.98c48.351-48.352 74.98-112.64 74.98-181.02s-26.629-132.668-74.98-181.02zm-181.02 407.02c-60.367 0-117.12-23.508-159.806-66.194s-66.194-99.439-66.194-159.806 23.508-117.12 66.194-159.806 99.439-66.194 159.806-66.194 117.12 23.508 159.806 66.194 66.194 99.439 66.194 159.806-23.508 117.12-66.194 159.806-99.439 66.194-159.806 66.194z"/><path d="m256 65.334c-105.134 0-190.667 85.532-190.667 190.666s85.533 190.667 190.667 190.667 190.667-85.533 190.667-190.667-85.533-190.666-190.667-190.666zm0 30c88.592 0 160.667 72.075 160.667 160.667 0 40.568-15.121 77.665-40.012 105.972-9.484-36.671-35.289-66.845-69.168-82.28 17.443-14.694 28.553-36.678 28.553-61.217 0-44.134-35.905-80.039-80.039-80.039s-80.039 35.905-80.039 80.039c0 24.539 11.11 46.523 28.553 61.217-33.88 15.435-59.685 45.608-69.168 82.28-24.893-28.308-40.014-65.405-40.014-105.973 0-88.592 72.075-160.666 160.667-160.666zm-50.039 123.142c0-27.592 22.447-50.039 50.039-50.039s50.039 22.447 50.039 50.039-22.447 50.039-50.039 50.039-50.039-22.448-50.039-50.039zm50.039 80.073c49.75 0 90.652 38.599 94.335 87.422-26.509 19.293-59.113 30.695-94.335 30.695s-67.826-11.401-94.335-30.695c3.683-48.822 44.585-87.422 94.335-87.422z"/></g></svg>