<svg id="Capa_1" enable-background="new 0 0 512 512" height="512" viewBox="0 0 512 512" width="512" xmlns="http://www.w3.org/2000/svg"><g><path d="m108.666 54.333v66.333h-55.333v30h55.333v31.667h-108.666v30h108.666v87.333h-55.333v30h55.333v31.667h-108.666v30h108.666v66.333h403.334v-403.333zm373.334 373.334h-343.333v-343.334h114v165.333h115.333v-165.333h114zm-144-343.334v135.333h-55.333v-135.333z"/><path d="m177 388.333h104.667v-90h-104.667zm30-60h44.666v30h-44.666z"/><path d="m337 298.333h104.666v30h-104.666z"/><path d="m404.333 358.333h37.333v30h-37.333z"/><path d="m337 358.333h37.333v30h-37.333z"/></g></svg>