<svg id="Capa_1" enable-background="new 0 0 511.658 511.658" height="512" viewBox="0 0 511.658 511.658" width="512" xmlns="http://www.w3.org/2000/svg"><g><path d="m240.829 0h30v74.666h-30z"/><path d="m166.162 29.946h30v57.441h-30z" transform="matrix(.929 -.371 .371 .929 -8.831 71.477)"/><path d="m301.775 43.666h57.442v30h-57.442z" transform="matrix(.371 -.929 .929 .371 153.281 343.735)"/><path d="m392.143 123.666h-272.628l-90.508 144.813 226.822 243.179 226.822-243.179zm-211.743 30.001-26.802 98.381h-78.943l61.488-98.381zm119.763 0 26.802 98.381h-142.274l26.803-98.381zm75.352 0 61.488 98.381h-78.944l-26.802-98.381zm-119.687 296.173-68.221-167.793h136.441zm-100.605-167.793 56.05 137.859-128.586-137.859zm201.211 0h72.537l-128.588 137.861z"/></g></svg>