<svg id="Capa_1" enable-background="new 0 0 512 512" height="512" viewBox="0 0 512 512" width="512" xmlns="http://www.w3.org/2000/svg"><g><path d="m501.333 77.396h-399.694l-11.735-77.396h-79.237v30h53.443l63.196 416.774c1.481 36.216 31.392 65.226 67.966 65.226 32.361 0 59.498-22.717 66.35-53.038h35.324c6.852 30.32 33.99 53.038 66.35 53.038 37.516 0 68.038-30.522 68.038-68.038s-30.521-68.037-68.038-68.037c-32.361 0-59.498 22.717-66.35 53.037h-35.324c-6.852-30.32-33.99-53.037-66.35-53.037-17.569 0-33.603 6.694-45.688 17.665l-9.865-65.061h299.933l32-221.133h29.681zm-268.024 366.566c0 20.974-17.064 38.038-38.037 38.038-20.974 0-38.038-17.064-38.038-38.038s17.064-38.037 38.038-38.037c20.973 0 38.037 17.064 38.037 38.037zm91.951 0c0-20.974 17.064-38.037 38.037-38.037 20.974 0 38.038 17.064 38.038 38.037 0 20.974-17.063 38.038-38.038 38.038-20.974 0-38.037-17.064-38.037-38.038zm-219.066-336.566h86.015l15.566 191.133h-72.605zm131.681 191.133-15.566-191.133h102.8l-15.566 191.133zm101.767 0 15.566-191.133h86.132l-27.659 191.133z"/></g></svg>