<svg id="Capa_1" enable-background="new 0 0 512 512" height="512" viewBox="0 0 512 512" width="512" xmlns="http://www.w3.org/2000/svg"><g><path d="m501.333 77.396h-399.694l-11.736-77.396h-79.236v30h53.442l63.196 416.77c1.479 36.218 31.392 65.23 67.966 65.23 32.361 0 59.499-22.717 66.35-53.038h35.325c6.852 30.32 33.99 53.038 66.35 53.038 37.516 0 68.037-30.522 68.037-68.038s-30.522-68.037-68.037-68.037c-32.361 0-59.498 22.717-66.35 53.037h-35.325c-6.852-30.32-33.99-53.037-66.35-53.037-17.569 0-33.603 6.694-45.688 17.665l-9.865-65.062h299.934l32-221.133h29.68v-29.999zm-306.062 328.529c20.974 0 38.037 17.064 38.037 38.037 0 20.974-17.063 38.038-38.037 38.038s-38.037-17.064-38.037-38.038c0-20.973 17.064-38.037 38.037-38.037zm129.989 38.037c0-20.974 17.063-38.037 38.037-38.037s38.037 17.064 38.037 38.037c0 20.974-17.064 38.038-38.037 38.038-20.974 0-38.037-17.064-38.037-38.038zm-219.066-336.566h335.146l-27.658 191.133h-278.512z"/><path d="m311.815 143.643-38.107 38.107-38.106-38.107-21.213 21.213 38.107 38.107-38.107 38.106 21.213 21.213 38.106-38.106 38.107 38.106 21.213-21.213-38.107-38.106 38.107-38.107z"/></g></svg>