<svg id="Capa_1" enable-background="new 0 0 512 512" height="512" viewBox="0 0 512 512" width="512" xmlns="http://www.w3.org/2000/svg"><g><path d="m434 368.851c20.295-33.739 31.133-72.461 31.133-112.851 0-40.389-10.838-79.112-31.133-112.851 29.984-9.142 51.863-37.054 51.863-69.989 0-40.341-32.819-73.16-73.16-73.16-35.225 0-64.711 25.025-71.624 58.229-29.389-14.212-61.837-21.727-95.445-21.727-58.63 0-113.75 22.832-155.208 64.29-41.457 41.457-64.289 96.578-64.289 155.208s22.832 113.751 64.29 155.208c41.458 41.458 96.578 64.29 155.208 64.29 33.607 0 66.056-7.515 95.445-21.727 6.913 33.204 36.398 58.229 71.623 58.229 40.341 0 73.16-32.819 73.16-73.16 0-32.935-21.879-60.847-51.863-69.989zm-21.297 113.149c-23.799 0-43.16-19.361-43.16-43.16 0-23.798 19.361-43.16 43.16-43.16s43.16 19.362 43.16 43.16c0 23.799-19.361 43.16-43.16 43.16zm-356.566-226c0-104.489 85.009-189.498 189.498-189.498 27.565 0 53.771 5.921 77.421 16.55l-135.307 102.396c-6.158-1.688-12.631-2.608-19.318-2.608-40.341 0-73.16 32.819-73.16 73.16s32.819 73.16 73.16 73.16c6.687 0 13.16-.919 19.318-2.608l135.307 102.396c-23.651 10.629-49.857 16.55-77.422 16.55-104.489 0-189.497-85.008-189.497-189.498zm399.726-182.84c0 23.798-19.361 43.16-43.16 43.16s-43.16-19.362-43.16-43.16 19.361-43.16 43.16-43.16 43.16 19.362 43.16 43.16zm-330.592 182.84c0-23.798 19.361-43.16 43.16-43.16 23.798 0 43.159 19.361 43.159 43.16s-19.361 43.16-43.159 43.16-43.16-19.361-43.16-43.16zm242.781-124.945-131.136 99.239c-4.263-11.32-11.257-21.305-20.173-29.165l129.311-97.858c4.975 10.969 12.573 20.498 21.998 27.784zm-131.136 150.651 131.136 99.24c-9.425 7.286-17.023 16.815-21.999 27.783l-129.31-97.858c8.916-7.86 15.91-17.845 20.173-29.165zm162.283 85.188-146.536-110.894 146.536-110.894c22.593 31.199 35.934 69.515 35.934 110.894s-13.341 79.695-35.934 110.894z"/></g></svg>