<svg id="Capa_1" enable-background="new 0 0 512 512" height="512" viewBox="0 0 512 512" width="512" xmlns="http://www.w3.org/2000/svg"><g><path d="m447.648 188.661c10.268-20.923 6.729-46.962-10.648-64.338l-107.912-107.913c-10.582-10.582-24.652-16.41-39.618-16.41s-29.035 5.828-39.617 16.41l-162.184 162.184c-30.198 6.663-52.865 33.626-52.865 65.798v200.216c0 37.16 30.232 67.392 67.392 67.392h307.608c37.16 0 67.392-30.232 67.392-67.392v-34.011-132.194-34.011c0-23.141-11.727-43.591-29.548-55.731zm-96.533 119.742h96.082v72.193h-96.082c-19.904 0-36.097-16.193-36.097-36.097s16.193-36.096 36.097-36.096zm96.081-30h-96.082c-36.446 0-66.097 29.651-66.097 66.097s29.651 66.097 66.097 66.097h96.082v34.011c0 20.618-16.774 37.392-37.392 37.392h-184.608v-275h184.608c20.618 0 37.392 16.774 37.392 37.392zm-157.726-248.403c6.952 0 13.488 2.707 18.404 7.623l22.016 22.017-117.359 117.36h-80.842l139.377-139.377c4.916-4.916 11.452-7.623 18.404-7.623zm-136.274 177h42v275h-42zm266.272-29.297c-3.158-.456-6.382-.703-9.665-.703h-154.846l96.147-96.147 64.683 64.683c8.718 8.717 9.94 22.126 3.681 32.167zm-354.664 66.689c0-20.618 16.774-37.392 37.392-37.392h21v275h-21c-20.618 0-37.392-16.774-37.392-37.392z"/></g></svg>