<svg id="Capa_1" enable-background="new 0 0 512 512" height="512" viewBox="0 0 512 512" width="512" xmlns="http://www.w3.org/2000/svg"><g><path d="m0 60.334v391.333h512v-391.333zm30 30h44v44.666h-44zm452 331.332h-452v-256.666h452zm-378-286.666v-44.666h378v44.666z"/><path d="m188.661 364.167 10.741-28.428h47.87l10.755 28.428h32.075l-54.041-142.841-25.511.026-53.959 142.814h32.07zm22.075-58.428 12.584-33.307 12.601 33.307z"/><path d="m107.117 306.844h42.22v-30h-42.22v-25.507h45.863v-30h-75.863v143.158h30z"/><path d="m362.447 365.33c14.666 0 28.315-4.418 39.705-11.979l17.731 17.731 21.213-21.213-17.928-17.928c7.125-11.167 11.274-24.408 11.274-38.608 0-39.699-32.297-71.997-71.996-71.997s-71.997 32.297-71.997 71.997 32.299 71.997 71.998 71.997zm41.996-71.997c0 5.855-1.208 11.432-3.382 16.5l-17.645-17.645-21.213 21.213 17.984 17.985c-5.393 2.524-11.403 3.944-17.74 3.944-23.157 0-41.997-18.839-41.997-41.997s18.84-41.997 41.997-41.997c23.156.001 41.996 18.84 41.996 41.997z"/></g></svg>