<svg id="Capa_1" enable-background="new 0 0 512 512" height="512" viewBox="0 0 512 512" width="512" xmlns="http://www.w3.org/2000/svg"><g><path d="m477.222 412.667v-212.334c0-35.841-29.159-65-65-65h-14.148c-3.617-75.236-65.958-135.333-142.074-135.333s-138.457 60.097-142.074 135.333h-14.148c-35.841 0-65 29.159-65 65v212.333h-34.778v36.834c0 34.463 28.037 62.5 62.5 62.5h387c34.462 0 62.5-28.037 62.5-62.5v-36.834h-34.778zm4.778 36.833c0 17.92-14.579 32.5-32.5 32.5h-71.838v-39.333h104.338zm-317.662 32.5v-39.333h183.324v39.333zm-134.338-32.5v-6.834h104.338v39.334h-71.838c-17.921 0-32.5-14.579-32.5-32.5zm34.778-249.167c0-19.299 15.701-35 35-35h15.828c3.653 22.519 12.667 43.721 26.598 62.267 17.534 23.343 64.822 76.978 88.634 103.745h-92.476v30h235.275v-30h-92.476c23.813-26.766 71.1-80.401 88.634-103.744 13.931-18.546 22.945-39.748 26.598-62.268h15.828c19.299 0 35 15.701 35 35v212.333h-382.443zm78.978-58.089c0-61.891 50.352-112.244 112.244-112.244s112.244 50.353 112.244 112.244c0 24.515-7.758 47.801-22.434 67.339-17.36 23.111-67.347 79.672-89.81 104.9-22.463-25.228-72.45-81.79-89.81-104.9-14.676-19.539-22.434-42.824-22.434-67.339z"/><path d="m241.037 134.749h30v93.735h-30z"/><ellipse cx="256" cy="96.574" rx="17.241" ry="17.241" transform="matrix(1 -.03 .03 1 -2.79 7.745)"/></g></svg>