<svg id="Capa_1" enable-background="new 0 0 511.97 511.97" height="512" viewBox="0 0 511.97 511.97" width="512" xmlns="http://www.w3.org/2000/svg"><g><path d="m18.36 493.611c12.238 12.238 28.319 18.359 44.395 18.359 16.08 0 32.154-6.118 44.394-18.359l44.425-44.424c31.689 17.18 67.339 26.311 104.396 26.311 58.63 0 113.751-22.832 155.208-64.289 34.414-34.414 55.977-78.246 62.317-125.681 24.927-31.056 38.475-69.366 38.475-109.763 0-46.949-18.283-91.087-51.48-124.285-33.198-33.197-77.336-51.48-124.285-51.48-40.397 0-78.707 13.548-109.764 38.475-47.435 6.34-91.266 27.903-125.679 62.317-41.458 41.458-64.289 96.578-64.289 155.208 0 37.057 9.131 72.707 26.311 104.397l-44.424 44.424c-24.48 24.48-24.48 64.31 0 88.79zm11.61-44.395c0-8.757 3.41-16.989 9.602-23.182l6.921-6.921 46.364 46.364-6.921 6.921c-12.783 12.782-33.581 12.781-46.364 0-6.191-6.192-9.602-14.425-9.602-23.182zm409.307-170.379c-27.532 27.531-64.136 42.693-103.072 42.693-38.935 0-75.54-15.162-103.071-42.693-56.833-56.834-56.833-149.309 0-206.143 27.532-27.532 64.136-42.694 103.071-42.694s75.54 15.162 103.072 42.693c27.531 27.532 42.693 64.136 42.693 103.072 0 38.935-15.162 75.54-42.693 103.072zm-238.446 9.024c3.475 4.191 7.165 8.263 11.09 12.188 3.437 3.437 6.997 6.704 10.659 9.817l-31.328 31.328-21.878-21.878zm-115.671 50.161c-11.973-24.833-18.687-52.658-18.687-82.022 0-81.243 51.396-150.699 123.377-177.587-36.84 55.346-38.958 127.127-6.366 184.369l-35.323 35.322-11.542-11.542zm348.373-15.836c-26.906 71.947-96.344 123.312-177.563 123.312-29.364 0-57.188-6.714-82.021-18.687l51.46-51.459-12.944-12.944 34.907-34.908c26.655 15.665 57.099 24.029 88.832 24.029 35.158.001 68.738-10.253 97.329-29.343zm-319.463 122.078-46.363-46.364 68.912-68.912 46.363 46.363z"/><path d="m418.18 93.791c-21.897-21.896-51.009-33.955-81.975-33.955-30.965 0-60.078 12.059-81.975 33.955-45.201 45.201-45.201 118.749 0 163.949 21.897 21.896 51.009 33.955 81.975 33.955s60.079-12.059 81.975-33.955c45.201-45.201 45.201-118.749 0-163.949zm-21.212 21.213c33.503 33.503 33.503 88.019 0 121.522-16.229 16.23-37.809 25.168-60.761 25.168s-44.531-8.938-60.762-25.168c-33.503-33.503-33.503-88.019.001-121.522 16.23-16.229 37.809-25.168 60.761-25.168 22.951 0 44.53 8.938 60.761 25.168z"/></g></svg>