<svg id="Capa_1" enable-background="new 0 0 512 512" height="512" viewBox="0 0 512 512" width="512" xmlns="http://www.w3.org/2000/svg"><g><path d="m350 0h-188c-35.841 0-65 29.159-65 65v382c0 35.841 29.159 65 65 65h188c35.841 0 65-29.159 65-65v-382c0-35.841-29.159-65-65-65zm0 482h-41.591c5.344-9.048 8.424-19.585 8.424-30.833s-3.08-21.785-8.424-30.833h76.591v26.666c0 19.299-15.701 35-35 35zm-188 0c-19.299 0-35-15.701-35-35v-26.667h76.591c-5.344 9.048-8.424 19.585-8.424 30.833s3.08 21.785 8.424 30.833h-41.591zm0-452h188c19.299 0 35 15.701 35 35v325.333h-258v-325.333c0-19.299 15.701-35 35-35zm63.167 421.167c0-17.001 13.832-30.833 30.833-30.833s30.833 13.832 30.833 30.833-13.832 30.833-30.833 30.833-30.833-13.832-30.833-30.833z"/><circle cx="256" cy="252.065" r="18.682"/><path d="m315.5 134.423c-1.609-31.012-28.43-55.809-59.5-56.435l.004.002c-29.648 0-54.903 21.852-59.011 51.287-.382 2.729-.575 5.52-.575 8.295h30c0-1.39.097-2.783.287-4.145 2.037-14.6 14.579-25.437 29.307-25.437l-.003-.004c16.325 0 28.734 12.612 29.532 27.992.426 8.213-2.447 16.01-8.089 21.953-5.647 5.948-13.266 9.223-21.452 9.223h-15v48.431h30v-20.369c10.675-2.794 20.513-8.525 28.208-16.629 11.363-11.969 17.149-27.653 16.292-44.164z"/><path d="m173.94 316.179h30.626v30h-30.626z"/><path d="m234.566 316.179h103.493v30h-103.493z"/></g></svg>