<svg id="Capa_1" enable-background="new 0 0 511.977 511.977" height="512" viewBox="0 0 511.977 511.977" width="512" xmlns="http://www.w3.org/2000/svg"><g><path d="m501.676 309.468-.001-.001c-8.624-12.108-21.447-20.134-36.107-22.598-14.468-2.43-29.013.851-41.031 9.228v-274.166h-321.234v281.518h-103.303v186.598h343.694l144.935-102.962c24.995-17.802 30.848-52.621 13.047-77.617zm-30.437 53.171-137.116 97.408h-200.444v-135.672c15.366-15.594 31.842-22.33 54.119-22.33 15.166 0 32.329 5.277 42.708 13.132l4.016 3.039h112.998c12.074 0 21.896 10.144 21.896 22.613s-9.822 22.614-21.896 22.614h-64.554v30h64.554c24.982 0 45.894-17.99 50.803-41.862l43.138-30.723c5.581-3.975 12.374-5.54 19.134-4.403 6.758 1.136 12.669 4.835 16.645 10.417v-.001c8.204 11.522 5.507 27.572-6.001 35.768zm-367.56 97.408h-73.679v-126.599h73.679zm182.746-408.116v115.347h-45.012v-115.347zm30 145.346v-145.346h78.111v265.515l-.401.285c-8.453-17.463-26.169-29.516-46.616-29.516h-103.241c-15.44-10.055-36.563-16.17-56.48-16.17-20.718 0-38.562 4.667-54.495 14.419v-234.533h78.11v145.347h105.012z"/></g></svg>