<svg id="Capa_1" enable-background="new 0 0 512 512" height="512" viewBox="0 0 512 512" width="512" xmlns="http://www.w3.org/2000/svg"><g><path d="m447 91.754h-86.333v-20.334c0-35.841-29.159-65-65-65h-230.667c-35.841 0-65 29.159-65 65v220.001c0 35.841 29.159 65 65 65h20.334v63.826l66.337-36.853c3.336 32.734 31.063 58.361 64.663 58.361h95.446l114.887 63.826v-63.826h20.333c35.841 0 65-29.159 65-65v-220c0-35.843-29.159-65.001-65-65.001zm35 285c0 19.299-15.701 35-35 35h-50.333v42.841l-77.113-42.841h-103.22c-19.299 0-35-15.701-35-35v-220c0-19.299 15.701-35 35-35h230.666c19.299 0 35 15.701 35 35zm-452-85.333v-220.001c0-19.299 15.701-35 35-35h230.667c19.299 0 35 15.701 35 35v20.333h-114.333c-35.841 0-65 29.159-65 65v192.508l-36 20v-42.84h-50.334c-19.299 0-35-15.701-35-35z"/><path d="m236.458 251.335h190.418v30h-190.418z"/><path d="m236.458 317.254h121.175v30h-121.175z"/><path d="m236.458 185.254h190.209v30h-190.209z"/></g></svg>