<svg id="Capa_1" enable-background="new 0 0 512 512" height="512" viewBox="0 0 512 512" width="512" xmlns="http://www.w3.org/2000/svg"><g><path d="m455.697 284.428h-50.534v-27.608c0-26.406-18.517-48.554-43.244-54.181v-137.639c0-35.841-29.159-65-65-65h-188c-35.841 0-65 29.159-65 65v382c0 35.841 29.159 65 65 65h359.16zm-192.928 197.572 9.118-167.572h155.398l9.118 167.572zm-188.849-35v-26.667h76.591c-5.344 9.048-8.424 19.585-8.424 30.833s3.08 21.785 8.424 30.833h-41.591c-19.299.001-35-15.7-35-34.999zm35-417h188c19.299 0 35 15.701 35 35v139.138c-22.008 7.4-37.911 28.212-37.911 52.682v27.608h-50.534l-5.763 105.905h-163.792v-325.333c0-19.299 15.701-35 35-35zm266.244 226.82v27.608h-51.154v-27.608c0-14.104 11.474-25.577 25.577-25.577 14.102 0 25.577 11.473 25.577 25.577zm-203.077 194.347c0-17.001 13.831-30.833 30.833-30.833 17.001 0 30.833 13.832 30.833 30.833s-13.832 30.833-30.833 30.833c-17.002 0-30.833-13.832-30.833-30.833z"/><path d="m124.587 237.333h78.5v30h-78.5z"/><path d="m124.587 303.333h30.333v30h-30.333z"/><path d="m266.152 106.193-21.995-20.401-53.097 57.244-30-28.723-20.748 21.668 52.016 49.803z"/></g></svg>