<svg id="Capa_1" enable-background="new 0 0 512 512" height="512" viewBox="0 0 512 512" width="512" xmlns="http://www.w3.org/2000/svg"><g><path d="m312.667 274.408h100.808v30h-100.808z"/><path d="m312.667 337h72.666v30h-72.666z"/><path d="m512 90.397-78.492-90.397h-355.015l-78.493 90.397v81.07c0 22.279 11.598 41.887 29.063 53.145v153.56c0 35.841 29.159 65 65 65h53.161v38.828h-22.548v30h262.65v-30h-22.548v-38.829h53.161c35.841 0 65-29.159 65-65v-153.56c17.463-11.256 29.061-30.865 29.061-53.144zm-419.825-60.397h327.651l50.086 57.683h-427.825zm293.426 87.683v53.784c0 18.307-14.894 33.2-33.2 33.2s-33.2-14.894-33.2-33.2v-53.784zm-257.651 108.453c9.315 5.414 20.122 8.532 31.65 8.532 19.301 0 36.598-8.706 48.2-22.387 9.98 11.768 24.176 19.838 40.236 21.868v102.851h-120.086zm-1.55-54.669v-53.784h66.4v53.784c0 18.307-14.894 33.2-33.2 33.2s-33.2-14.893-33.2-33.2zm96.4 0v-53.784h66.4v53.784c0 18.307-14.893 33.2-33.2 33.2-18.306 0-33.2-14.893-33.2-33.2zm-192.8 0v-53.784h66.4v53.784c0 18.307-14.893 33.2-33.2 33.2-18.306 0-33.2-14.893-33.2-33.2zm304.777 310.533h-157.553v-38.829h157.553zm118.16-103.828c0 19.299-15.701 35-35 35h-323.874c-19.299 0-35-15.701-35-35v-143.655c1.369.089 2.746.15 4.138.15 12.83 0 24.772-3.853 34.75-10.448v142.781h180.086v-136.303c10.238-3.821 19.22-10.227 26.164-18.417 11.602 13.681 28.899 22.387 48.2 22.387s36.598-8.706 48.2-22.387c11.602 13.681 28.899 22.387 48.2 22.387 1.391 0 2.768-.061 4.137-.15v143.655zm29.063-206.705c0 18.307-14.894 33.2-33.2 33.2-18.307 0-33.2-14.894-33.2-33.2v-53.784h66.4z"/></g></svg>