<svg id="Capa_1" enable-background="new 0 0 512 512" height="512" viewBox="0 0 512 512" width="512" xmlns="http://www.w3.org/2000/svg"><g><path d="m477.222 383.994v-212.333c0-35.841-29.159-65-65-65h-21.144l-29.425-16.988-22.326-38.673h-44.654l-38.673-22.327-38.672 22.327h-44.655l-22.328 38.672-29.424 16.988h-21.143c-35.841 0-65 29.159-65 65v212.333h-34.778v36.834c0 34.462 28.038 62.5 62.5 62.5h387c34.463 0 62.5-28.037 62.5-62.5v-36.834h-34.778zm4.778 36.834c0 17.92-14.579 32.5-32.5 32.5h-71.839v-39.333h104.339zm-317.662 32.499v-39.333h183.323v39.333zm-134.338-32.499v-6.834h104.338v39.333h-71.838c-17.92 0-32.5-14.579-32.5-32.499zm34.778-249.167c0-19.299 15.701-35 35-35h11.896v19.994l-22.327 38.672 22.327 38.672v44.655l38.672 22.328 22.328 38.672h44.655l38.671 22.326 38.672-22.327h44.654l22.327-38.672 38.673-22.328v-44.655l22.327-38.672-22.327-38.672v-19.994h11.896c19.299 0 35 15.701 35 35v212.333h-382.444zm125.216-90.661h35.372l30.634-17.686 30.633 17.686h35.373l17.686 30.634 30.634 17.686v35.373l17.687 30.634-17.687 30.634v35.373l-30.634 17.686-17.686 30.634h-35.373l-30.633 17.686-30.634-17.686h-35.372l-17.686-30.634-30.634-17.686v-35.373l-17.687-30.634 17.687-30.634v-35.373l30.634-17.686z"/><path d="m274.056 107.405h-30v18.106c-12.845 4.583-22.257 15.324-25.259 28.955-2.966 13.469.994 27.247 10.333 35.956 9.125 8.508 20.297 12.415 33.234 16.938 1.343.469 2.725.953 4.148 1.456 6.746 2.385 9.708 6.77 8.803 13.033-.977 6.768-6.73 14.302-17.052 14.848-14.131.735-22.718-7.845-27.334-12.46l-21.214 21.212c4.901 4.902 16.227 16.216 34.34 20.018v17.783h30v-19.438c17.718-6.399 28.737-22.339 30.952-37.672 2.967-20.538-8.219-38.44-28.497-45.608-1.457-.515-2.871-1.009-4.244-1.49-10.936-3.824-18.161-6.35-22.677-10.561-1.543-1.439-2.158-4.549-1.495-7.562.46-2.091 1.889-5.814 6.28-7.255 13.466-4.414 25.133 9.578 25.622 10.176l-.071-.089 23.502-18.646c-5.543-6.986-16.033-16.037-29.372-20.141v-17.559z"/></g></svg>