<svg id="Capa_1" enable-background="new 0 0 512 512" height="512" viewBox="0 0 512 512" width="512" xmlns="http://www.w3.org/2000/svg"><g><path d="m388.333 59.667v-12.667c0-25.916-21.084-47-47-47s-47 21.084-47 47v12.667h-76.666v-12.667c0-25.916-21.084-47-47-47s-47 21.084-47 47v12.667h-74.667v452.333h414v-452.333zm-309.333 30h44.667v10.667c0 25.916 21.084 47 47 47s47-21.084 47-47v-10.667h76.666v10.667c0 25.916 21.084 47 47 47s47-21.084 47-47v-10.667h44.667v87.333h-354zm91.667-59.667c9.374 0 17 7.626 17 17v53.334c0 9.374-7.626 17-17 17s-17-7.626-17-17v-53.334c0-9.374 7.626-17 17-17zm170.666 0c9.374 0 17 7.626 17 17v53.334c0 9.374-7.626 17-17 17s-17-7.626-17-17v-53.334c0-9.374 7.626-17 17-17zm-201.088 177-61.245 61.246v-61.246zm232.031 275 60.724-60.725v60.725zm60.724-103.15-103.15 103.15h-250.85v-171.328l103.671-103.672h250.329z"/><path d="m276.297 329.981c-1.778-.628-3.505-1.232-5.182-1.818-13.768-4.814-22.863-7.995-28.897-13.621-2.793-2.605-3.896-7.475-2.811-12.407.576-2.618 2.695-8.962 9.898-11.325 18.69-6.129 34.3 12.698 34.954 13.502l23.444-18.718c-.823-1.037-14.898-18.424-36.635-24.22v-20.609h-30v21.193h-.068c-15.25 4.625-27.385 17.803-30.891 33.724-3.374 15.319 1.09 30.953 11.649 40.8 10.643 9.923 23.357 14.37 39.454 19.999 1.646.576 3.34 1.168 5.086 1.785 13.065 4.618 13.725 14.238 12.956 19.561-1.385 9.581-9.479 20.244-23.978 21.01-18.74.99-29.946-10.197-35.958-16.209l-21.213 21.213c6.004 6.003 20.204 20.188 42.963 24.059v21.179h30v-22.828c21.714-6.818 35.236-25.85 37.877-44.134 3.391-23.463-9.424-43.927-32.648-52.136z"/></g></svg>