<svg id="Capa_1" enable-background="new 0 0 512 512" height="512" viewBox="0 0 512 512" width="512" xmlns="http://www.w3.org/2000/svg"><g><path d="m444.608 88.5h-126.608v-23.5c0-35.841-29.159-65-65-65h-188c-35.841 0-65 29.159-65 65v382c0 35.841 29.159 65 65 65h188c35.841 0 65-29.159 65-65v-23.5h126.608c37.16 0 67.392-30.232 67.392-67.392v-200.216c0-37.16-30.232-67.392-67.392-67.392zm-191.608 393.5h-41.591c5.344-9.048 8.424-19.585 8.424-30.833s-3.08-21.785-8.424-30.833h76.591v26.666c0 19.299-15.701 35-35 35zm-188 0c-19.299 0-35-15.701-35-35v-26.667h76.59c-5.344 9.048-8.424 19.585-8.424 30.833s3.08 21.785 8.424 30.833h-41.59zm0-452h188c19.299 0 35 15.701 35 35v325.333h-258v-325.333c0-19.299 15.701-35 35-35zm253 165h164v42h-164zm-189.833 256.167c0-17.001 13.832-30.833 30.833-30.833s30.833 13.832 30.833 30.833-13.832 30.833-30.833 30.833-30.833-13.832-30.833-30.833zm189.833-184.167h164v89.108c0 20.618-16.774 37.392-37.392 37.392h-126.608zm164-102h-164v-46.5h126.608c20.618 0 37.392 16.774 37.392 37.392z"/><path d="m384.275 313h55.058v30h-55.058z"/><path d="m182.12 163.773c-1.701-.602-3.352-1.179-4.955-1.74-13.074-4.572-21.712-7.592-27.374-12.872-2.461-2.295-3.461-6.805-2.489-11.221.526-2.389 2.458-8.179 9.013-10.329 17.418-5.712 32.056 11.934 32.671 12.688l-.061-.076 23.502-18.646c-.788-.994-14.157-17.503-34.857-23.233v-19.851h-30l-.008 20.382c-14.734 4.832-26.157 17.169-29.559 32.613-3.274 14.867 1.066 30.046 11.328 39.615 10.27 9.577 22.477 13.845 37.93 19.249 1.572.55 3.191 1.116 4.86 1.706 12.032 4.253 12.645 13.08 11.939 17.963-1.285 8.893-8.806 18.79-22.282 19.503-17.622.934-28.179-9.622-33.849-15.292l-21.213 21.213c5.734 5.734 19.231 19.218 40.854 23.081v20.338h30v-21.991c20.736-6.721 33.645-24.998 36.183-42.562 3.286-22.747-9.131-42.584-31.633-50.538z"/><path d="m103.727 313h110.547v30h-110.547z"/></g></svg>