<svg id="Capa_1" enable-background="new 0 0 512 512" height="512" viewBox="0 0 512 512" width="512" xmlns="http://www.w3.org/2000/svg"><g><path d="m447 117h-382c-35.841 0-65 29.159-65 65v148c0 35.841 29.159 65 65 65h382c35.841 0 65-29.159 65-65v-148c0-35.841-29.159-65-65-65zm35 213c0 19.299-15.701 35-35 35h-382c-19.299 0-35-15.701-35-35v-148c0-19.299 15.701-35 35-35h382c19.299 0 35 15.701 35 35z"/><path d="m231.998 298.405h48.067l11.141 29.521h32.065l-54.318-143.933-25.491.026-54.809 143.908h32.102zm24.144-63.392 12.602 33.392h-25.32z"/><path d="m364.393 227.302-28.293-43.329h-35.828l49.129 75.241-.169 68.746 30 .073.169-68.796 48.995-75.264h-35.797z"/><path d="m195.539 231.172c0-26.009-21.442-47.169-47.799-47.169l-46.74-.003v143.997h30v-49.596c6.196-.031 12.859-.059 16.74-.059 26.357-.001 47.799-21.161 47.799-47.17zm-64.495-17.169h16.696c9.648 0 17.799 7.862 17.799 17.169s-8.15 17.169-17.799 17.169c-3.869 0-10.445.028-16.602.058-.031-6.384-.075-27.721-.094-34.396z"/></g></svg>