<svg id="Capa_1" enable-background="new 0 0 512 512" height="512" viewBox="0 0 512 512" width="512" xmlns="http://www.w3.org/2000/svg"><g><path d="m402.271 73.127v-8.127c0-35.841-29.159-65-65-65h-188c-35.841 0-65 29.159-65 65v382c0 35.841 29.159 65 65 65h188c35.841 0 65-29.159 65-65v-139.461c15.465-11.893 25.459-30.566 25.459-51.539v-131.334c-.001-20.972-9.994-39.645-25.459-51.539zm-65 408.873h-41.59c5.344-9.048 8.424-19.585 8.424-30.833s-3.08-21.785-8.424-30.833h76.59v26.666c0 19.299-15.702 35-35 35zm-223-35v-26.667h76.591c-5.344 9.048-8.424 19.585-8.424 30.833s3.08 21.785 8.424 30.833h-41.592c-19.298.001-34.999-15.7-34.999-34.999zm98.167 4.167c0-17.001 13.832-30.833 30.833-30.833 17.002 0 30.834 13.832 30.834 30.833s-13.833 30.833-30.835 30.833c-17 0-30.832-13.832-30.832-30.833zm159.833-60.834h-258v-325.333c0-19.299 15.701-35 35-35h188c17.715 0 32.389 13.233 34.68 30.332-3.014-.43-6.09-.666-9.221-.666h-118.476c-35.841 0-65 29.159-65 65v131.334c0 32.918 24.601 60.201 56.381 64.431v46.299l82.315-45.73h44.779c3.241 0 6.426-.246 9.541-.707v70.04zm-9.542-99.333h-52.553l-44.542 24.745v-24.745h-21.381c-19.299 0-35-15.701-35-35v-131.334c0-19.299 15.701-35 35-35h118.476c19.299 0 35 15.701 35 35v131.334c0 19.299-15.701 35-35 35z"/><path d="m288.454 121.194h30v79.39h-30z"/><ellipse cx="303.492" cy="238.759" rx="17.241" ry="17.241" transform="matrix(.987 -.16 .16 .987 -34.326 51.697)"/></g></svg>