<svg id="Capa_1" enable-background="new 0 0 512 512" height="512" viewBox="0 0 512 512" width="512" xmlns="http://www.w3.org/2000/svg"><g><path d="m444.608 50.25h-307.608c-37.16 0-67.392 30.232-67.392 67.392v9.108h-2.216c-37.16 0-67.392 30.232-67.392 67.392v9.108 191.108c0 37.16 30.232 67.392 67.393 67.392h307.607c37.16 0 67.393-30.232 67.393-67.392v-9.108h2.216c37.16 0 67.392-30.232 67.392-67.392v-200.216c-.001-37.16-30.232-67.392-67.393-67.392zm-32.215 344.108c0 20.618-16.774 37.392-37.393 37.392h-307.607c-20.619 0-37.393-16.774-37.393-37.392v-89.108h382.393zm0-119.108h-382.393v-42h382.393zm0-72h-382.393v-9.108c0-20.618 16.774-37.392 37.393-37.392h307.607c20.618 0 37.393 16.774 37.393 37.392zm69.607 114.608c0 20.618-16.773 37.392-37.392 37.392h-2.216v-161.108c0-37.16-30.232-67.392-67.393-67.392h-275.391v-9.108c0-20.618 16.773-37.392 37.392-37.392h307.608c20.618 0 37.392 16.774 37.392 37.392z"/><path d="m72.668 351.25h132v30h-132z"/><path d="m314.667 351.25h55.058v30h-55.058z"/></g></svg>