<svg id="Capa_1" enable-background="new 0 0 512.001 512.001" height="512" viewBox="0 0 512.001 512.001" width="512" xmlns="http://www.w3.org/2000/svg"><g><path d="m392.395 122.805c8.694-10.957 14.383-24.36 15.949-39.014 4.44-41.526-25.732-78.921-67.258-83.361-16.08-1.718-31.97 1.734-45.955 9.987-13.327 7.865-24.019 19.509-30.919 33.674-2.835 5.818-5.616 13.999-8.212 23.105-2.596-9.106-5.378-17.286-8.212-23.105-6.9-14.165-17.592-25.809-30.919-33.674-13.984-8.253-29.874-11.705-45.955-9.987-41.525 4.439-71.697 41.835-67.258 83.361 1.567 14.654 7.256 28.057 15.949 39.014h-79.378v158.793h23.139v230.403h385.271v-230.403h23.139v-158.793zm-218.291-92.545.022-.092c24-1.625 38.45 10.141 46.693 27.062 6.09 12.501 12.994 43.895 17.255 65.948-23.14.203-56.183-.098-68.208-2.597-19.639-4.083-34.259-20.149-36.379-39.979-2.682-25.078 15.539-47.661 40.617-50.342zm-103.877 122.545h89.61v98.793h-89.61zm154.581 329.196h-131.443v-200.403h66.471v96.155l59.406-17.145 5.565 1.606v119.787zm23.841-144.13-29.407-8.487-29.406 8.486v-185.065l58.813.242zm64.972 144.13h-58.813v-111.128l23.841 6.88v-224.53l34.972-.364zm-39.694-358.823c4.258-22.048 11.16-53.435 17.256-65.948 8.992-18.456 27.33-29.043 46.715-26.97 25.078 2.681 43.298 25.264 40.617 50.342-2.12 19.83-16.74 35.896-36.379 39.979-12.027 2.499-45.071 2.799-68.209 2.597zm144.709 358.823h-75.015v-200.403h75.015zm23.138-230.403h-98.153v-98.793h98.153z"/></g></svg>