<svg id="Capa_1" enable-background="new 0 0 512 512" height="512" viewBox="0 0 512 512" width="512" xmlns="http://www.w3.org/2000/svg"><g><path d="m433 219.667v-219.667h-354v219.667h-30v292.333h414v-292.333zm-30-189.667v214.073l-120.192 102.386-26.617-24.109-27.331 23.825-119.86-102.102v-214.073zm-197.005 336.107-126.995 110.703v-218.883zm49.814-3.626 131.953 119.519h-269.06zm49.421 4.287 127.77-108.841v224.073h-.55z"/><path d="m256 286.334c62.125 0 112.667-50.542 112.667-112.667s-50.542-112.667-112.667-112.667-112.667 50.542-112.667 112.667 50.542 112.667 112.667 112.667zm-82.667-112.667c0-45.583 37.085-82.667 82.667-82.667 45.583 0 82.667 37.084 82.667 82.667s-37.084 82.667-82.667 82.667c-45.582 0-82.667-37.085-82.667-82.667z"/><path d="m309.778 149.07-21.995-20.402-40.341 43.493-21.757-20.832-20.747 21.669 43.772 41.91z"/></g></svg>