<svg id="Capa_1" enable-background="new 0 0 512 512" height="512" viewBox="0 0 512 512" width="512" xmlns="http://www.w3.org/2000/svg"><g><path d="m445.015 124.363c0-68.574-55.789-124.363-124.362-124.363-68.574 0-124.363 55.789-124.363 124.363 0 27.16 8.601 52.966 24.872 74.628 8.181 10.891 23.859 29.413 39.769 47.765h-193.946v265.244h345.086v-265.244h-31.696c15.91-18.352 31.588-36.874 39.769-47.765 16.271-21.662 24.871-47.468 24.871-74.628zm-62.944 213.804h-285.086v-61.411h190.235c12.178 13.771 33.432 37.443 33.432 37.443s21.255-23.672 33.432-37.443h27.986v61.411zm0 143.833h-82.531v-113.833h82.531zm-172.555 0v-113.833h60.024v113.833zm-112.531-113.833h82.531v113.833h-82.531zm223.668-98.94c-19.958-22.434-61.018-68.971-75.504-88.255-12.337-16.425-18.859-36-18.859-56.61 0-52.031 42.331-94.362 94.363-94.362 52.031 0 94.362 42.331 94.362 94.363 0 20.61-6.521 40.186-18.858 56.61-14.486 19.284-55.546 65.82-75.504 88.254z"/><path d="m375.251 124.631c0-30.106-24.493-54.599-54.599-54.599-30.105 0-54.599 24.493-54.599 54.599s24.493 54.599 54.599 54.599 54.599-24.493 54.599-54.599zm-54.598-24.599c13.564 0 24.599 11.035 24.599 24.599s-11.035 24.599-24.599 24.599c-13.563 0-24.599-11.035-24.599-24.599s11.035-24.599 24.599-24.599z"/></g></svg>