<svg id="Capa_1" enable-background="new 0 0 510.987 510.987" height="512" viewBox="0 0 510.987 510.987" width="512" xmlns="http://www.w3.org/2000/svg"><g><path d="m494.917 345.141 16.07.358v-102.931h-112.174l17.656-30.581-27.898-48.321v-55.796l-48.321-27.898-27.898-48.321h-55.796l-48.322-27.898-48.321 27.898h-55.796l-27.897 48.321-48.321 27.898v55.796l-27.899 48.321 27.899 48.321v55.796l48.321 27.898 14.434 25.002v138.23h420.333v-102.93l-15.329.336-.724.022c-16.387-.028-29.708-13.367-29.708-29.76.001-16.41 13.351-29.761 29.691-29.761zm-13.93 132.094h-92.5l.084-204.667h92.416v44.229c-26.222 6.317-45.761 29.971-45.761 58.104s19.539 51.788 45.761 58.105zm-446.346-265.248 23.258-40.282v-46.515l40.282-23.257 23.257-40.282h46.515l40.282-23.257 40.282 23.257h46.515l23.258 40.282 40.282 23.257v46.514l23.257 40.282-23.257 40.283v46.514l-40.282 23.257-23.258 40.283h-46.515l-40.282 23.257-40.282-23.257h-46.515l-23.257-40.283-40.282-23.257v-46.513zm86.013 180.337h39.259l48.321 27.898 48.321-27.898h55.796l27.898-48.321 18.237-10.529v143.761h-237.832z"/><path d="m101.391 197.8h212.18v30h-212.18z" transform="matrix(.462 -.887 .887 .462 -77.061 298.638)"/><path d="m144.234 202.783c24.813 0 45-20.187 45-45s-20.187-45-45-45-45 20.187-45 45 20.187 45 45 45zm0-60c8.271 0 15 6.729 15 15s-6.729 15-15 15-15-6.729-15-15 6.729-15 15-15z"/><path d="m227.234 266.192c0 24.813 20.186 45 45 45s45-20.187 45-45-20.186-45-45-45-45 20.187-45 45zm60 0c0 8.271-6.729 15-15 15-8.272 0-15-6.729-15-15s6.728-15 15-15 15 6.729 15 15z"/></g></svg>